<svg width="33" height="32" viewBox="0 0 33 32" fill="none" xmlns="http://www.w3.org/2000/svg">
<path d="M17.5132 0.68667L21.1937 9.0812C21.3322 9.39707 21.5529 9.67 21.8328 9.87152C22.1128 10.073 22.4416 10.1958 22.7851 10.2269L31.7511 11.0308C32.7656 11.1785 33.1703 12.4226 32.4347 13.139L25.6808 18.8128C25.1339 19.2722 24.8851 19.9941 25.0355 20.6914L26.9988 29.8816C27.171 30.8906 26.1128 31.6617 25.205 31.1832L17.3792 26.6003C17.0841 26.427 16.7481 26.3356 16.4058 26.3356C16.0636 26.3356 15.7275 26.427 15.4324 26.6003L7.60659 31.1804C6.70151 31.6562 5.64057 30.8878 5.81284 29.8789L7.77612 20.6886C7.92378 19.9914 7.67768 19.2695 7.13081 18.8101L0.374168 13.1417C-0.358645 12.4281 0.0460426 11.1812 1.05776 11.0335L10.0238 10.2296C10.3673 10.1985 10.6961 10.0758 10.976 9.87425C11.256 9.67273 11.4767 9.39981 11.6152 9.08394L15.2957 0.689405C15.7523 -0.229345 17.0593 -0.229345 17.5132 0.68667Z" fill="#FDD835"/>
</svg>
